ModelForces
version=1
nRows=4
nColumns=94
inDegrees=yes

This file contains the forces exerted on a model during a simulation.

A force is a generalized force, meaning that it can be either a force (N) or a torque (Nm).

Units are S.I. units (second, meters, Newtons, ...)
Angles are in degrees.

endheader 
time	addbrev_l	addlong_l	addmagDist_l	addmagIsch_l	addmagMid_l	addmagProx_l	bflh_l	bfsh_l	edl_l	ehl_l	fdl_l	fhl_l	gaslat_l	gasmed_l	glmax1_l	glmax2_l	glmax3_l	glmed1_l	glmed2_l	glmed3_l	glmin1_l	glmin2_l	glmin3_l	grac_l	iliacus_l	perbrev_l	perlong_l	piri_l	psoas_l	recfem_l	sart_l	semimem_l	semiten_l	soleus_l	tfl_l	tibant_l	tibpost_l	vasint_l	vaslat_l	vasmed_l	addbrev_r	addlong_r	addmagDist_r	addmagIsch_r	addmagMid_r	addmagProx_r	bflh_r	bfsh_r	edl_r	ehl_r	fdl_r	fhl_r	gaslat_r	gasmed_r	glmax1_r	glmax2_r	glmax3_r	glmed1_r	glmed2_r	glmed3_r	glmin1_r	glmin2_r	glmin3_r	grac_r	iliacus_r	perbrev_r	perlong_r	piri_r	psoas_r	recfem_r	sart_r	semimem_r	semiten_r	soleus_r	tfl_r	tibant_r	tibpost_r	vasint_r	vaslat_r	vasmed_r	lumbar_extension	lumbar_bending	lumbar_rotation	arm_flex_l	arm_add_l	arm_rot_l	arm_flex_r	arm_add_r	arm_rot_r	elbow_flex_l	elbow_flex_r	pro_sup_l	pro_sup_r	
          6.47040817	         11.25984950	         43.58397223	         57.92867614	         46.10498844	         36.10994469	         10.42006744	        467.45367330	         85.88686462	        150.97169036	         36.82062906	         12.50063820	         20.37284714	         24.72244124	        134.93115605	        150.29540062	        478.75845667	        288.59286354	         14.51021513	         10.21660691	         11.39762280	          4.62142544	          5.64241235	          7.89534070	         37.66370230	         71.82840201	         56.88833271	         93.82536109	        564.34587330	        127.92475844	        169.71245972	         43.92946536	        128.05053752	        142.86163892	         70.12109286	         24.19300039	        102.77572661	         71.45992991	        181.91250908	       1260.65938283	        352.37130130	         17.39082157	        268.59013266	          5.38397032	          2.25274054	          8.70844012	        296.44281582	         22.39956811	        191.50201120	         56.82207036	         22.44838978	          5.67248590	          0.00928227	         38.24814811	         88.02117726	          7.48066708	          2.22272966	          4.85049581	          0.01144072	          0.09813809	          6.31032486	          1.07260145	          7.23532857	          0.01382283	         79.86378159	        702.31068802	         10.03731224	         23.14444934	          0.00066005	       1244.85146314	       1988.59506158	        232.02555285	        100.48247296	          6.52156227	          0.06423892	        104.13110703	        108.83068502	         30.69224931	          0.02022904	          1.01013805	          1.43991069	        -30.61906209	         45.83004693	        -67.14122766	        -54.03085909	         35.39819188	         -8.25748114	         38.33844841	        -11.67602293	          8.10347180	        -49.13599242	         19.06864436	          3.89617594	         -0.22286266	
          6.48044219	         10.04086066	         27.32061527	         48.80662399	         36.36725965	         32.17088617	          7.83088127	        452.25509827	         78.11897659	        143.38161006	         42.45936024	         13.67708352	         22.27702044	         26.63188534	        139.88203987	         98.26899208	        253.64088119	        234.25856668	         15.03755110	          9.98070016	         10.18405673	          4.68943179	          5.80819368	          7.39743055	         34.41245189	         57.45818265	         35.63145061	        103.27770827	        727.18157692	        103.46892118	        118.77883199	         37.35578457	        119.06847028	        121.25021951	        253.96185846	         13.41374256	        132.68675202	         91.13868499	        129.33177583	        988.87995568	        254.51940005	         13.56722304	        264.60687889	          6.70945362	          4.23358247	          9.30567399	        277.82606228	         39.70608397	        257.32249766	         54.33517976	         20.40501980	          1.91961649	         78.34453199	        118.04700257	         67.06547617	          7.10339688	          2.87735365	          6.63126129	          0.01202267	          2.74180167	          6.27173924	          0.68148615	         13.04178493	          0.01775519	         86.82818378	        550.19759249	          7.90585673	         18.05452072	          0.00049904	       1127.46347424	       1343.04619509	        254.80978326	        164.66263416	          8.16815119	          0.02262090	         90.00084333	        124.15124974	         20.99309931	          0.01594941	          0.01224813	          0.15613999	        -39.85141825	         38.20852467	        -30.37774874	        -76.47240567	         64.17200288	         -9.53719145	         -4.25399434	        -44.11772546	         43.29313543	        -45.75356373	         20.87755726	          0.02873281	          0.52553256	
          6.49047620	         11.34775852	         21.24574438	         41.22493672	         28.31498641	         29.46817609	          6.86696918	          0.00563502	         69.55437624	        124.62797760	         44.25650415	         17.25244123	         18.20119282	         26.82026418	          0.11484848	        427.97185610	       1015.17997022	        172.02546400	         15.08210316	          9.44476980	         64.66287700	          4.95630201	          5.80417512	          8.62373218	         30.91376936	         49.58695988	         19.50869108	        160.32842842	        711.62673490	         89.74472463	         54.56102945	         31.68515345	        114.08154567	         99.50877793	        415.00966019	         12.19335355	        158.15043684	        117.07922561	         96.18317828	        686.07056815	        191.89764925	         10.46397391	        180.32643185	          7.57944303	          5.86307534	          9.73830689	        589.68103419	         41.32912017	        209.54858043	         50.77868081	         18.97511790	         25.16251591	         94.92559598	        164.90064842	         27.25512120	          6.61221335	          3.29407162	          8.21150659	          0.00891969	          2.39264876	          6.26034593	          0.38168425	         24.32074031	          1.12276131	        116.56967216	        430.59129973	          6.39107419	         14.14451920	          0.00002553	       1020.84016699	        839.13234453	        229.09405171	        161.88447522	          8.89656451	          0.06877267	         54.32226486	        140.68827031	         77.35683567	          0.01313411	          0.01649829	          0.62070256	         -1.91476205	         -2.07767504	        -62.30518572	        -66.61476473	         34.80520153	         33.27198593	        -41.11408116	          3.39673321	          6.80626636	          3.13520266	         12.89263914	          2.29370227	          0.28642439	
          6.50051021	         14.95934015	         24.72992523	         23.55880418	         20.52115338	         24.63742557	          6.94984199	        495.53295196	         62.25091079	        134.43790577	         59.70769386	         13.11752234	         14.40343114	         19.54929098	        380.71243907	        346.70914665	        888.06800439	        304.22038085	         14.82265030	          8.80656222	         48.26182959	          5.14933651	          5.64155567	          6.37984481	         27.47815357	         46.90699831	          0.00308334	        177.32143578	        504.49466868	         84.34869429	         28.43645002	         27.60268754	          0.02047453	         79.24375543	        123.37830457	          9.36115951	        265.62286270	         83.52541253	         67.73779157	        532.35182039	        136.54643158	          9.26256323	        138.19718237	          8.16498219	          6.99216832	          9.96236200	        700.97936252	         39.30209706	        197.90420817	         53.20516575	         17.83190780	         15.22125099	         78.62153208	        112.06201782	          4.11665002	          6.11542908	          3.66670867	          8.90619751	          0.00206759	          2.20125593	          6.15490244	          0.27453139	         29.54760587	          0.00578429	        160.61006023	        150.12162601	          5.53799352	         12.10986387	          0.00003661	        930.86644122	        489.14318657	        189.36929202	        151.14514646	          9.24932993	          0.01958060	         25.91266743	        147.85505480	         20.43641143	          0.13017843	          0.01162963	          1.76298879	         50.61510528	          1.66874195	        -42.31675449	        -11.35770597	        -11.38694099	         24.91708925	        -68.64802976	         39.94460279	        -12.16349942	         12.89386207	          3.57642276	          1.19880980	          0.14420820	
